<svg width="650.05625px" height="122px" xmlns="http://www.w3.org/2000/svg" viewBox="-75.02812499999999 14 650.05625 122" style="background: rgba(0, 0, 0, 0);" preserveAspectRatio="xMidYMid"><defs><filter id="editing-vr"><feFlood flood-color="#f00" flood-opacity="0.7" result="c1"></feFlood><feFlood flood-color="#00f" flood-opacity="0.7" result="c3"></feFlood><feComposite operator="in" in="c1" in2="SourceAlpha" result="text-c1"></feComposite><feComposite operator="in" in="c3" in2="SourceAlpha" result="text-c3"></feComposite><feOffset in="text-c1" dx="5" dy="-1" result="text1"></feOffset><feOffset in="text-c3" dx="-5" dy="1" result="text3"></feOffset><feBlend in="SourceGraphic" in2="text1" mode="multiply" result="text4"></feBlend><feBlend in="text4" in2="text3" mode="multiply"></feBlend></filter></defs><g filter="url(#editing-vr)"><g transform="translate(20.144991666078568, 104.79000091552734)"><path d="M0.45-0.32L0.45-0.32L8.51-42.24L8.51-42.24Q16.06-42.88 20.93-42.88L20.93-42.88L20.93-42.88Q25.79-42.88 28.93-42.46L28.93-42.46L28.93-42.46Q32.06-42.05 34.18-40.96L34.18-40.96L34.18-40.96Q38.40-38.91 38.40-33.28L38.40-33.28L38.40-33.28Q38.40-30.02 35.58-27.26L35.58-27.26L35.58-27.26Q32.96-24.77 30.08-24.19L30.08-24.19L30.08-24.19Q33.15-23.68 35.33-21.38L35.33-21.38L35.33-21.38Q37.63-18.94 37.63-15.17L37.63-15.17L37.63-15.17Q37.63-7.87 32.19-3.62L32.19-3.62L32.19-3.62Q26.75 0.64 16.06 0.64L16.06 0.64L16.06 0.64Q8.70 0.64 0.45-0.32ZM17.86-20.61L14.66-4.03L14.66-4.03Q15.23-3.97 15.36-3.97L15.36-3.97L15.94-3.97L15.94-3.97Q21.18-3.97 23.42-7.42L23.42-7.42L23.42-7.42Q25.09-10.11 25.09-15.04L25.09-15.04L25.09-15.04Q25.09-17.66 23.39-19.07L23.39-19.07L23.39-19.07Q21.70-20.48 17.86-20.61L17.86-20.61ZM27.58-33.22L27.58-33.22L27.58-33.22Q27.58-38.53 22.46-38.53L22.46-38.53L21.89-38.53L21.89-38.53Q21.63-38.53 21.25-38.46L21.25-38.46L18.69-24.96L19.33-24.96L19.33-24.96Q27.58-25.15 27.58-33.22ZM61.89-17.98L61.89-17.98L61.89-17.98Q64.19-22.08 64.19-26.24L64.19-26.24L64.19-26.24Q64.19-28.99 62.21-28.99L62.21-28.99L62.21-28.99Q60.67-28.99 59.07-26.37L59.07-26.37L59.07-26.37Q57.41-23.74 56.90-20.35L56.90-20.35L53.57 0L40.32 1.28L46.85-32.64L57.41-33.92L56.26-27.46L56.26-27.46Q59.39-33.92 66.43-33.92L66.43-33.92L66.43-33.92Q70.14-33.92 72.16-32L72.16-32L72.16-32Q74.18-30.08 74.18-26.14L74.18-26.14L74.18-26.14Q74.18-22.21 71.58-19.71L71.58-19.71L71.58-19.71Q68.99-17.22 64.58-17.22L64.58-17.22L64.58-17.22Q62.66-17.22 61.89-17.98ZM90.56-3.52L90.56-3.52L90.56-3.52Q88.58 1.28 82.24 1.28L82.24 1.28L82.24 1.28Q78.98 1.28 76.93-0.96L76.93-0.96L76.93-0.96Q75.20-2.94 75.20-4.93L75.20-4.93L75.20-4.93Q75.20-10.11 77.57-20.22L77.57-20.22L79.94-32.64L92.93-33.92L89.02-13.70L89.02-13.70Q87.94-8.96 87.94-7.30L87.94-7.30L87.94-7.30Q87.94-3.65 90.56-3.52ZM81.09-41.54L81.09-41.54L81.09-41.54Q81.09-44.03 83.17-45.38L83.17-45.38L83.17-45.38Q85.25-46.72 88.26-46.72L88.26-46.72L88.26-46.72Q91.26-46.72 93.09-45.38L93.09-45.38L93.09-45.38Q94.91-44.03 94.91-41.54L94.91-41.54L94.91-41.54Q94.91-39.04 92.90-37.76L92.90-37.76L92.90-37.76Q90.88-36.48 87.87-36.48L87.87-36.48L87.87-36.48Q84.86-36.48 82.98-37.76L82.98-37.76L82.98-37.76Q81.09-39.04 81.09-41.54ZM116.16-33.92L116.16-33.92L116.16-33.92Q118.46-33.92 120.26-33.41L120.26-33.41L120.26-33.41Q120.32-33.66 120.45-34.37L120.45-34.37L120.77-36.35L120.77-36.35Q121.02-37.63 121.41-39.74L121.41-39.74L122.43-44.80L135.17-46.08L128.06-8.96L128.06-8.96Q128-8.58 128-7.94L128-7.94L128-6.91L128-6.91Q128-5.50 128.70-4.45L128.70-4.45L128.70-4.45Q129.41-3.39 130.56-3.39L130.56-3.39L130.56-3.39Q129.28-0.38 125.38 0.90L125.38 0.90L125.38 0.90Q124.03 1.28 122.14 1.28L122.14 1.28L122.14 1.28Q120.26 1.28 118.53 0.29L118.53 0.29L118.53 0.29Q116.80-0.70 116.29-2.37L116.29-2.37L116.29-2.37Q115.26-0.70 113.22 0.29L113.22 0.29L113.22 0.29Q111.17 1.28 108.19 1.28L108.19 1.28L108.19 1.28Q105.22 1.28 102.75 0.51L102.75 0.51L102.75 0.51Q100.29-0.26 98.75-1.92L98.75-1.92L98.75-1.92Q95.94-5.18 95.94-12.61L95.94-12.61L95.94-12.61Q95.94-22.21 101.57-28.03L101.57-28.03L101.57-28.03Q107.20-33.92 116.16-33.92ZM115.71-30.08L115.71-30.08L115.71-30.08Q113.34-30.08 112.06-27.52L112.06-27.52L112.06-27.52Q110.78-24.96 109.47-18.62L109.47-18.62L109.47-18.62Q108.16-12.29 108.16-6.59L108.16-6.59L108.16-6.59Q108.16-2.69 110.46-2.69L110.46-2.69L110.46-2.69Q112.51-2.69 113.95-4.74L113.95-4.74L113.95-4.74Q115.39-6.78 115.97-10.18L115.97-10.18L119.42-28.93L119.42-28.93Q118.08-30.08 115.71-30.08ZM154.62 0L147.26 0L158.85-42.24L172.22-42.24L175.17-18.11L187.07-42.24L198.27-42.24L199.42-10.62L199.42-10.62Q199.68-4.35 202.75-2.43L202.75-2.43L202.75-2.43Q202.05-1.15 200.00 0.06L200.00 0.06L200.00 0.06Q197.95 1.28 195.23 1.28L195.23 1.28L195.23 1.28Q192.51 1.28 190.91 0.51L190.91 0.51L190.91 0.51Q189.31-0.26 188.42-1.54L188.42-1.54L188.42-1.54Q186.82-3.84 186.82-8.26L186.82-8.26L186.82-28.03L174.21 0L166.27 0L161.79-28.74L154.62 0ZM219.46 1.28L219.46 1.28L219.46 1.28Q205.38 1.28 205.38-11.97L205.38-11.97L205.38-11.97Q205.38-21.38 210.56-27.46L210.56-27.46L210.56-27.46Q216.06-33.92 225.60-33.92L225.60-33.92L225.60-33.92Q232.51-33.92 236.03-30.72L236.03-30.72L236.03-30.72Q239.55-27.52 239.55-20.80L239.55-20.80L239.55-20.80Q239.55-10.56 234.05-4.61L234.05-4.61L234.05-4.61Q228.67 1.28 219.46 1.28ZM221.12-26.56L221.12-26.56L221.12-26.56Q220.35-24.83 219.74-22.24L219.74-22.24L219.74-22.24Q219.14-19.65 218.37-15.55L218.37-15.55L218.37-15.55Q217.60-11.46 217.60-6.40L217.60-6.40L217.60-6.40Q217.60-4.74 218.14-3.65L218.14-3.65L218.14-3.65Q218.69-2.56 220.16-2.56L220.16-2.56L220.16-2.56Q221.63-2.56 222.56-3.26L222.56-3.26L222.56-3.26Q223.49-3.97 224.19-5.63L224.19-5.63L224.19-5.63Q225.47-8.58 226.50-14.05L226.50-14.05L226.50-14.05Q227.52-19.52 227.62-21.89L227.62-21.89L227.62-21.89Q227.71-24.26 227.71-26.02L227.71-26.02L227.71-26.02Q227.71-27.78 227.20-28.93L227.20-28.93L227.20-28.93Q226.69-30.08 225.25-30.08L225.25-30.08L225.25-30.08Q223.81-30.08 222.85-29.18L222.85-29.18L222.85-29.18Q221.89-28.29 221.12-26.56ZM263.68-7.23L263.68-7.23L263.68-7.23Q260.35-3.78 254.27-3.78L254.27-3.78L254.27-3.78Q246.66-3.78 245.06-9.34L245.06-9.34L245.06-9.34Q244.54-11.01 244.54-12.86L244.54-12.86L244.54-12.86Q244.54-14.72 244.93-16.64L244.93-16.64L247.94-32.64L260.93-33.92L257.41-15.30L257.41-15.30Q257.28-14.46 257.09-13.57L257.09-13.57L257.09-13.57Q256.90-12.67 256.90-11.74L256.90-11.74L256.90-11.74Q256.90-10.82 257.22-10.21L257.22-10.21L257.22-10.21Q257.54-9.60 257.98-9.22L257.98-9.22L257.98-9.22Q258.75-8.70 260.13-8.70L260.13-8.70L260.13-8.70Q261.50-8.70 262.69-10.37L262.69-10.37L262.69-10.37Q263.87-12.03 264.45-14.91L264.45-14.91L267.97-32.64L280.58-33.92L275.78-8.77L275.78-8.77Q273.41 3.52 268.54 8.38L268.54 8.38L268.54 8.38Q266.05 10.88 262.82 11.87L262.82 11.87L262.82 11.87Q259.58 12.86 255.42 12.86L255.42 12.86L255.42 12.86Q248.70 12.86 244.86 10.75L244.86 10.75L244.86 10.75Q241.02 8.64 241.02 5.12L241.02 5.12L241.02 5.12Q241.02 2.50 243.01 0.99L243.01 0.99L243.01 0.99Q244.99-0.51 248.06-0.51L248.06-0.51L248.06-0.51Q250.75-0.51 252.80 0.64L252.80 0.64L252.80 0.64Q254.02 1.34 254.59 2.24L254.59 2.24L254.59 2.24Q253.12 3.52 253.12 5.63L253.12 5.63L253.12 5.63Q253.12 8.45 255.68 8.45L255.68 8.45L255.68 8.45Q259.90 8.45 262.34-1.28L262.34-1.28L262.34-1.28Q263.04-4.16 263.68-7.23ZM309.95 1.28L309.95 1.28L309.95 1.28Q302.21 1.28 302.21-4.74L302.21-4.74L302.21-4.74Q302.27-6.40 302.78-9.22L302.78-9.22L303.94-15.10L303.94-15.10Q305.66-23.42 305.66-25.28L305.66-25.28L305.66-25.28Q305.66-28.99 303.49-28.99L303.49-28.99L303.49-28.99Q299.84-28.99 297.92-19.46L297.92-19.46L294.14 0L281.28 1.28L287.94-32.70L298.43-33.92L297.41-27.65L297.41-27.65Q300.42-33.92 309.63-33.92L309.63-33.92L309.63-33.92Q314.11-33.92 316-32.03L316-32.03L316-32.03Q317.89-30.14 317.89-25.92L317.89-25.92L317.89-25.92Q317.89-21.95 315.84-12.67L315.84-12.67L315.84-12.67Q314.88-8.51 314.88-6.94L314.88-6.94L314.88-6.94Q314.88-5.38 315.74-4.48L315.74-4.48L315.74-4.48Q316.61-3.58 317.89-3.46L317.89-3.46L317.89-3.46Q317.25-1.28 315.04 0L315.04 0L315.04 0Q312.83 1.28 309.95 1.28ZM338.37-3.52L338.37-3.52L338.37-3.52Q336.38 1.28 330.05 1.28L330.05 1.28L330.05 1.28Q326.78 1.28 324.74-0.96L324.74-0.96L324.74-0.96Q323.01-2.94 323.01-4.93L323.01-4.93L323.01-4.93Q323.01-10.11 325.38-20.22L325.38-20.22L327.74-32.64L340.74-33.92L336.83-13.70L336.83-13.70Q335.74-8.96 335.74-7.30L335.74-7.30L335.74-7.30Q335.74-3.65 338.37-3.52ZM328.90-41.54L328.90-41.54L328.90-41.54Q328.90-44.03 330.98-45.38L330.98-45.38L330.98-45.38Q333.06-46.72 336.06-46.72L336.06-46.72L336.06-46.72Q339.07-46.72 340.90-45.38L340.90-45.38L340.90-45.38Q342.72-44.03 342.72-41.54L342.72-41.54L342.72-41.54Q342.72-39.04 340.70-37.76L340.70-37.76L340.70-37.76Q338.69-36.48 335.68-36.48L335.68-36.48L335.68-36.48Q332.67-36.48 330.78-37.76L330.78-37.76L330.78-37.76Q328.90-39.04 328.90-41.54ZM376-7.10L376-7.10L376-7.10Q376-4.29 378.88-3.46L378.88-3.46L378.88-3.46Q378.18-1.09 375.42 0.19L375.42 0.19L375.42 0.19Q373.12 1.28 370.59 1.28L370.59 1.28L370.59 1.28Q368.06 1.28 366.75 0.61L366.75 0.61L366.75 0.61Q365.44-0.06 364.74-1.15L364.74-1.15L364.74-1.15Q363.58-2.82 363.58-5.95L363.58-5.95L363.58-5.95Q363.58-7.81 364.61-12.93L364.61-12.93L365.50-17.79L365.50-17.79Q366.59-23.36 366.59-25.41L366.59-25.41L366.59-25.41Q366.59-28.99 364.61-28.99L364.61-28.99L364.61-28.99Q362.11-28.99 360.51-25.34L360.51-25.34L360.51-25.34Q359.87-23.94 359.42-21.82L359.42-21.82L355.07 0L342.21 1.28L351.23-44.80L364.10-46.08L363.58-43.52L363.58-43.52Q361.79-33.66 360.26-30.34L360.26-30.34L360.26-30.34Q363.84-33.92 370.43-33.92L370.43-33.92L370.43-33.92Q377.41-33.92 378.69-29.31L378.69-29.31L378.69-29.31Q379.14-27.84 379.14-26.56L379.14-26.56L379.14-26.56Q379.14-25.28 379.04-24.29L379.04-24.29L379.04-24.29Q378.94-23.30 378.62-21.50L378.62-21.50L377.79-16.90L376.32-9.66L376.32-9.66Q376-8.19 376-7.10ZM386.85-1.92L386.85-1.92L386.85-1.92Q385.34-3.58 384.67-6.21L384.67-6.21L384.67-6.21Q384-8.83 384-13.12L384-13.12L384-13.12Q384-17.41 385.47-21.31L385.47-21.31L385.47-21.31Q386.94-25.22 389.63-28.03L389.63-28.03L389.63-28.03Q395.14-33.92 404.22-33.92L404.22-33.92L404.22-33.92Q407.49-33.92 409.86-32.83L409.86-32.83L420.80-33.92L416.06-8.96L416.06-8.96Q415.87-8.19 415.87-6.78L415.87-6.78L415.87-6.78Q415.87-5.38 416.74-4.48L416.74-4.48L416.74-4.48Q417.60-3.58 418.88-3.46L418.88-3.46L418.88-3.46Q418.24-1.28 415.90 0L415.90 0L415.90 0Q413.57 1.28 410.94 1.28L410.94 1.28L410.94 1.28Q408.32 1.28 406.56 0.29L406.56 0.29L406.56 0.29Q404.80-0.70 404.29-2.37L404.29-2.37L404.29-2.37Q403.26-0.77 401.09 0.26L401.09 0.26L401.09 0.26Q398.91 1.28 396 1.28L396 1.28L396 1.28Q393.09 1.28 390.72 0.51L390.72 0.51L390.72 0.51Q388.35-0.26 386.85-1.92ZM400.35-27.90L400.35-27.90L400.35-27.90Q399.62-26.75 398.98-24.80L398.98-24.80L398.98-24.80Q398.34-22.85 397.28-17.63L397.28-17.63L397.28-17.63Q396.22-12.42 396.22-8.70L396.22-8.70L396.22-8.70Q396.22-4.99 396.80-3.90L396.80-3.90L396.80-3.90Q397.38-2.82 398.40-2.82L398.40-2.82L398.40-2.82Q400.45-2.82 401.95-4.77L401.95-4.77L401.95-4.77Q403.46-6.72 404.03-10.18L404.03-10.18L407.42-28.93L407.42-28.93Q406.08-30.08 404.51-30.08L404.51-30.08L404.51-30.08Q402.94-30.08 402.02-29.57L402.02-29.57L402.02-29.57Q401.09-29.06 400.35-27.90ZM451.33 1.28L451.33 1.28L451.33 1.28Q443.58 1.28 443.58-4.74L443.58-4.74L443.58-4.74Q443.65-6.40 444.16-9.22L444.16-9.22L445.31-15.10L445.31-15.10Q447.04-23.42 447.04-25.28L447.04-25.28L447.04-25.28Q447.04-28.99 444.86-28.99L444.86-28.99L444.86-28.99Q441.22-28.99 439.30-19.46L439.30-19.46L435.52 0L422.66 1.28L429.31-32.70L439.81-33.92L438.78-27.65L438.78-27.65Q441.79-33.92 451.01-33.92L451.01-33.92L451.01-33.92Q455.49-33.92 457.38-32.03L457.38-32.03L457.38-32.03Q459.26-30.14 459.26-25.92L459.26-25.92L459.26-25.92Q459.26-21.95 457.22-12.67L457.22-12.67L457.22-12.67Q456.26-8.51 456.26-6.94L456.26-6.94L456.26-6.94Q456.26-5.38 457.12-4.48L457.12-4.48L457.12-4.48Q457.98-3.58 459.26-3.46L459.26-3.46L459.26-3.46Q458.62-1.28 456.42 0L456.42 0L456.42 0Q454.21 1.28 451.33 1.28Z" fill="#444"></path></g></g><style>text {
  font-size: 64px;
  font-family: Arial Black;
  dominant-baseline: central;
  text-anchor: middle;
}</style></svg>